<svg xmlns="http://www.w3.org/2000/svg" viewBox="0 0 720 560" fill="none">
  <rect width="720" height="560" rx="28" fill="#0a1628"/>
  <path d="M0 120 Q180 80 360 140 T720 100 L720 560 L0 560Z" fill="#081120"/>
  <path d="M40 280 Q200 220 360 300 T680 260" stroke="#1e3a5f" stroke-width="3" fill="none"/>
  <path d="M80 400 Q240 360 400 420 T720 380" stroke="#1e3a5f" stroke-width="2" fill="none" opacity="0.5"/>
  <circle cx="180" cy="200" r="36" fill="#44D9FF18" stroke="#44D9FF" stroke-width="2.5"/>
  <circle cx="180" cy="200" r="10" fill="#44D9FF"/>
  <circle cx="380" cy="320" r="28" fill="#8CF24F18" stroke="#8CF24F" stroke-width="2"/>
  <circle cx="380" cy="320" r="8" fill="#8CF24F"/>
  <circle cx="520" cy="180" r="24" fill="#7C5CFF18" stroke="#7C5CFF" stroke-width="2"/>
  <circle cx="520" cy="180" r="7" fill="#7C5CFF"/>
  <circle cx="280" cy="400" r="20" fill="#44D9FF18" stroke="#44D9FF" stroke-width="2"/>
  <circle cx="280" cy="400" r="6" fill="#44D9FF"/>
  <rect x="24" y="24" width="280" height="48" rx="24" fill="#081120EE" stroke="#ffffff12"/>
  <text x="56" y="54" fill="#94A3B8" font-family="system-ui,sans-serif" font-size="15">Paris · 24 spots autour</text>
  <rect x="24" y="480" width="200" height="56" rx="16" fill="#081120" stroke="#44D9FF33"/>
  <text x="44" y="508" fill="#44D9FF" font-family="system-ui,sans-serif" font-size="11" font-weight="600">LIVE</text>
  <text x="44" y="528" fill="#F0F2F5" font-family="system-ui,sans-serif" font-size="14" font-weight="600">12 athlètes actifs</text>
</svg>
