<svg xmlns="http://www.w3.org/2000/svg" viewBox="0 0 390 844" fill="none">
  <rect width="390" height="844" fill="#030712"/>
  <text x="24" y="52" fill="#F0F2F5" font-family="system-ui,sans-serif" font-size="22" font-weight="700">Communauté</text>
  <rect x="24" y="72" width="342" height="120" rx="20" fill="#081120" stroke="#44D9FF22"/>
  <text x="44" y="108" fill="#44D9FF" font-family="system-ui,sans-serif" font-size="11" font-weight="600">DÉFI SEMAINE</text>
  <text x="44" y="136" fill="#F0F2F5" font-family="system-ui,sans-serif" font-size="16" font-weight="700">100 tractions cumulées</text>
  <rect x="44" y="152" width="280" height="6" rx="3" fill="#1e293b"/>
  <rect x="44" y="152" width="196" height="6" rx="3" fill="#44D9FF"/>
  <text x="44" y="178" fill="#94A3B8" font-family="system-ui,sans-serif" font-size="12">68% · 2j restants</text>
  <text x="24" y="230" fill="#94A3B8" font-family="system-ui,sans-serif" font-size="12" font-weight="600">CLASSEMENT</text>
  <rect x="24" y="244" width="342" height="56" rx="14" fill="#081120"/>
  <text x="44" y="280" fill="#44D9FF" font-family="system-ui,sans-serif" font-size="14" font-weight="700">1</text>
  <text x="68" y="280" fill="#F0F2F5" font-family="system-ui,sans-serif" font-size="14" font-weight="600">@marc_sw</text>
  <text x="300" y="280" fill="#8CF24F" font-family="system-ui,sans-serif" font-size="14" font-weight="700">2 840 XP</text>
  <rect x="24" y="308" width="342" height="56" rx="14" fill="#081120"/>
  <text x="44" y="344" fill="#94A3B8" font-family="system-ui,sans-serif" font-size="14" font-weight="700">2</text>
  <text x="68" y="344" fill="#F0F2F5" font-family="system-ui,sans-serif" font-size="14" font-weight="600">@lena_fit</text>
  <text x="300" y="344" fill="#F0F2F5" font-family="system-ui,sans-serif" font-size="14">2 610 XP</text>
  <rect x="24" y="372" width="342" height="56" rx="14" fill="#44D9FF11" stroke="#44D9FF44"/>
  <text x="44" y="408" fill="#44D9FF" font-family="system-ui,sans-serif" font-size="14" font-weight="700">7</text>
  <text x="68" y="408" fill="#F0F2F5" font-family="system-ui,sans-serif" font-size="14" font-weight="600">Toi</text>
  <text x="300" y="408" fill="#44D9FF" font-family="system-ui,sans-serif" font-size="14" font-weight="700">1 920 XP</text>
  <text x="24" y="460" fill="#94A3B8" font-family="system-ui,sans-serif" font-size="12" font-weight="600">ACTIVITÉ</text>
  <rect x="24" y="474" width="342" height="100" rx="16" fill="#081120"/>
  <circle cx="52" cy="510" r="16" fill="#7C5CFF44"/>
  <text x="80" y="506" fill="#F0F2F5" font-family="system-ui,sans-serif" font-size="13" font-weight="600">@marc_sw a terminé Push Day</text>
  <text x="80" y="528" fill="#94A3B8" font-family="system-ui,sans-serif" font-size="12">il y a 12 min · +180 XP</text>
  <rect x="80" y="540" width="72" height="22" rx="11" fill="#8CF24F22"/>
  <text x="92" y="555" fill="#8CF24F" font-family="system-ui,sans-serif" font-size="10" font-weight="600">Badge</text>
  <rect x="24" y="590" width="342" height="100" rx="16" fill="#081120"/>
  <circle cx="52" cy="626" r="16" fill="#44D9FF44"/>
  <text x="80" y="622" fill="#F0F2F5" font-family="system-ui,sans-serif" font-size="13" font-weight="600">@lena_fit a rejoint un spot</text>
  <text x="80" y="644" fill="#94A3B8" font-family="system-ui,sans-serif" font-size="12">Parc Kellermann · Session collective</text>
  <rect x="0" y="780" width="390" height="64" fill="#081120"/>
  <circle cx="312" cy="812" r="5" fill="#44D9FF"/>
</svg>
